<mxfile host="app.diagrams.net" agent="Mozilla/5.0 (Macintosh; Intel Mac OS X 10_15_7) AppleWebKit/605.1.15 (KHTML, like Gecko) Version/18.0.1 Safari/605.1.15" version="24.8.3">
  <diagram name="Page-1" id="fDp5jnlC77bflOpHESIz">
    <mxGraphModel dx="4589" dy="2674" grid="1" gridSize="10" guides="1" tooltips="1" connect="1" arrows="1" fold="1" page="1" pageScale="1" pageWidth="827" pageHeight="1169" math="0" shadow="0">
      <root>
        <mxCell id="0" />
        <mxCell id="1" parent="0" />
        <mxCell id="OTHG-YNJ5ATRgMX6RS4N-24" value="«component»&lt;br&gt;&lt;b&gt;CustomerVIew&lt;/b&gt;" style="html=1;dropTarget=0;whiteSpace=wrap;" vertex="1" parent="1">
          <mxGeometry x="-1424.9999999999998" y="760" width="180" height="90" as="geometry" />
        </mxCell>
        <mxCell id="OTHG-YNJ5ATRgMX6RS4N-25" value="" style="shape=module;jettyWidth=8;jettyHeight=4;" vertex="1" parent="OTHG-YNJ5ATRgMX6RS4N-24">
          <mxGeometry x="1" width="20" height="20" relative="1" as="geometry">
            <mxPoint x="-27" y="7" as="offset" />
          </mxGeometry>
        </mxCell>
        <mxCell id="OTHG-YNJ5ATRgMX6RS4N-26" value="«component»&lt;br&gt;&lt;b&gt;ManagerView&lt;/b&gt;" style="html=1;dropTarget=0;whiteSpace=wrap;" vertex="1" parent="1">
          <mxGeometry x="-1424.9999999999998" y="420" width="180" height="90" as="geometry" />
        </mxCell>
        <mxCell id="OTHG-YNJ5ATRgMX6RS4N-27" value="" style="shape=module;jettyWidth=8;jettyHeight=4;" vertex="1" parent="OTHG-YNJ5ATRgMX6RS4N-26">
          <mxGeometry x="1" width="20" height="20" relative="1" as="geometry">
            <mxPoint x="-27" y="7" as="offset" />
          </mxGeometry>
        </mxCell>
        <mxCell id="OTHG-YNJ5ATRgMX6RS4N-28" value="«component»&lt;br&gt;&lt;b&gt;StaffView&lt;/b&gt;" style="html=1;dropTarget=0;whiteSpace=wrap;" vertex="1" parent="1">
          <mxGeometry x="-1429.9999999999998" y="80" width="180" height="90" as="geometry" />
        </mxCell>
        <mxCell id="OTHG-YNJ5ATRgMX6RS4N-29" value="" style="shape=module;jettyWidth=8;jettyHeight=4;" vertex="1" parent="OTHG-YNJ5ATRgMX6RS4N-28">
          <mxGeometry x="1" width="20" height="20" relative="1" as="geometry">
            <mxPoint x="-27" y="7" as="offset" />
          </mxGeometry>
        </mxCell>
        <mxCell id="RllFxYWtb3R3hPKGHQac-41" value="«component»&lt;br&gt;&lt;b&gt;Order&lt;/b&gt;" style="html=1;dropTarget=0;whiteSpace=wrap;" parent="1" vertex="1">
          <mxGeometry x="-179.99999999999977" y="580" width="180" height="90" as="geometry" />
        </mxCell>
        <mxCell id="RllFxYWtb3R3hPKGHQac-42" value="" style="shape=module;jettyWidth=8;jettyHeight=4;" parent="RllFxYWtb3R3hPKGHQac-41" vertex="1">
          <mxGeometry x="1" width="20" height="20" relative="1" as="geometry">
            <mxPoint x="-27" y="7" as="offset" />
          </mxGeometry>
        </mxCell>
        <mxCell id="RllFxYWtb3R3hPKGHQac-43" value="«component»&lt;br&gt;&lt;b&gt;CustomerController&lt;/b&gt;" style="html=1;dropTarget=0;whiteSpace=wrap;" parent="1" vertex="1">
          <mxGeometry x="-609.9999999999998" y="770" width="180" height="90" as="geometry" />
        </mxCell>
        <mxCell id="RllFxYWtb3R3hPKGHQac-44" value="" style="shape=module;jettyWidth=8;jettyHeight=4;" parent="RllFxYWtb3R3hPKGHQac-43" vertex="1">
          <mxGeometry x="1" width="20" height="20" relative="1" as="geometry">
            <mxPoint x="-27" y="7" as="offset" />
          </mxGeometry>
        </mxCell>
        <mxCell id="RllFxYWtb3R3hPKGHQac-49" value="«component»&lt;br&gt;&lt;b&gt;Notification&lt;/b&gt;" style="html=1;dropTarget=0;whiteSpace=wrap;" parent="1" vertex="1">
          <mxGeometry x="-179.99999999999977" y="950" width="180" height="90" as="geometry" />
        </mxCell>
        <mxCell id="RllFxYWtb3R3hPKGHQac-50" value="" style="shape=module;jettyWidth=8;jettyHeight=4;" parent="RllFxYWtb3R3hPKGHQac-49" vertex="1">
          <mxGeometry x="1" width="20" height="20" relative="1" as="geometry">
            <mxPoint x="-27" y="7" as="offset" />
          </mxGeometry>
        </mxCell>
        <mxCell id="RllFxYWtb3R3hPKGHQac-86" value="«component»&lt;br&gt;&lt;b&gt;ManagerController&lt;/b&gt;" style="html=1;dropTarget=0;whiteSpace=wrap;" parent="1" vertex="1">
          <mxGeometry x="-609.9999999999998" y="430" width="180" height="90" as="geometry" />
        </mxCell>
        <mxCell id="RllFxYWtb3R3hPKGHQac-87" value="" style="shape=module;jettyWidth=8;jettyHeight=4;" parent="RllFxYWtb3R3hPKGHQac-86" vertex="1">
          <mxGeometry x="1" width="20" height="20" relative="1" as="geometry">
            <mxPoint x="-27" y="7" as="offset" />
          </mxGeometry>
        </mxCell>
        <mxCell id="OTHG-YNJ5ATRgMX6RS4N-31" value="«component»&lt;br&gt;&lt;b&gt;StaffController&lt;/b&gt;" style="html=1;dropTarget=0;whiteSpace=wrap;" vertex="1" parent="1">
          <mxGeometry x="-614.9999999999998" y="90" width="180" height="90" as="geometry" />
        </mxCell>
        <mxCell id="OTHG-YNJ5ATRgMX6RS4N-32" value="" style="shape=module;jettyWidth=8;jettyHeight=4;" vertex="1" parent="OTHG-YNJ5ATRgMX6RS4N-31">
          <mxGeometry x="1" width="20" height="20" relative="1" as="geometry">
            <mxPoint x="-27" y="7" as="offset" />
          </mxGeometry>
        </mxCell>
        <mxCell id="OTHG-YNJ5ATRgMX6RS4N-33" value="«component»&lt;br&gt;&lt;b&gt;ServiceDetail&lt;/b&gt;" style="html=1;dropTarget=0;whiteSpace=wrap;" vertex="1" parent="1">
          <mxGeometry x="-179.99999999999977" y="-85" width="180" height="90" as="geometry" />
        </mxCell>
        <mxCell id="OTHG-YNJ5ATRgMX6RS4N-34" value="" style="shape=module;jettyWidth=8;jettyHeight=4;" vertex="1" parent="OTHG-YNJ5ATRgMX6RS4N-33">
          <mxGeometry x="1" width="20" height="20" relative="1" as="geometry">
            <mxPoint x="-27" y="7" as="offset" />
          </mxGeometry>
        </mxCell>
        <mxCell id="OTHG-YNJ5ATRgMX6RS4N-35" value="«component»&lt;br&gt;&lt;b&gt;Product&lt;/b&gt;" style="html=1;dropTarget=0;whiteSpace=wrap;" vertex="1" parent="1">
          <mxGeometry x="-179.99999999999977" y="250" width="180" height="90" as="geometry" />
        </mxCell>
        <mxCell id="OTHG-YNJ5ATRgMX6RS4N-36" value="" style="shape=module;jettyWidth=8;jettyHeight=4;" vertex="1" parent="OTHG-YNJ5ATRgMX6RS4N-35">
          <mxGeometry x="1" width="20" height="20" relative="1" as="geometry">
            <mxPoint x="-27" y="7" as="offset" />
          </mxGeometry>
        </mxCell>
        <mxCell id="OTHG-YNJ5ATRgMX6RS4N-37" value="«component»&lt;br&gt;&lt;b&gt;Customer&lt;/b&gt;" style="html=1;dropTarget=0;whiteSpace=wrap;" vertex="1" parent="1">
          <mxGeometry x="-179.99999999999977" y="770" width="180" height="90" as="geometry" />
        </mxCell>
        <mxCell id="OTHG-YNJ5ATRgMX6RS4N-38" value="" style="shape=module;jettyWidth=8;jettyHeight=4;" vertex="1" parent="OTHG-YNJ5ATRgMX6RS4N-37">
          <mxGeometry x="1" width="20" height="20" relative="1" as="geometry">
            <mxPoint x="-27" y="7" as="offset" />
          </mxGeometry>
        </mxCell>
        <mxCell id="OTHG-YNJ5ATRgMX6RS4N-43" value="" style="html=1;rounded=0;" vertex="1" parent="1">
          <mxGeometry x="-625" y="130" width="20" height="20" as="geometry" />
        </mxCell>
        <mxCell id="OTHG-YNJ5ATRgMX6RS4N-44" value="" style="endArrow=none;html=1;rounded=0;align=center;verticalAlign=top;endFill=0;labelBackgroundColor=none;endSize=2;" edge="1" source="OTHG-YNJ5ATRgMX6RS4N-43" target="OTHG-YNJ5ATRgMX6RS4N-45" parent="1">
          <mxGeometry relative="1" as="geometry" />
        </mxCell>
        <mxCell id="OTHG-YNJ5ATRgMX6RS4N-45" value="" style="ellipse;html=1;fontSize=11;align=center;fillColor=none;points=[];aspect=fixed;resizable=0;verticalAlign=bottom;labelPosition=center;verticalLabelPosition=top;flipH=1;" vertex="1" parent="1">
          <mxGeometry x="-705" y="137" width="8" height="8" as="geometry" />
        </mxCell>
        <mxCell id="OTHG-YNJ5ATRgMX6RS4N-46" value="" style="html=1;rounded=0;" vertex="1" parent="1">
          <mxGeometry x="-620" y="465" width="20" height="20" as="geometry" />
        </mxCell>
        <mxCell id="OTHG-YNJ5ATRgMX6RS4N-47" value="" style="endArrow=none;html=1;rounded=0;align=center;verticalAlign=top;endFill=0;labelBackgroundColor=none;endSize=2;" edge="1" source="OTHG-YNJ5ATRgMX6RS4N-46" target="OTHG-YNJ5ATRgMX6RS4N-48" parent="1">
          <mxGeometry relative="1" as="geometry" />
        </mxCell>
        <mxCell id="OTHG-YNJ5ATRgMX6RS4N-48" value="" style="ellipse;html=1;fontSize=11;align=center;fillColor=none;points=[];aspect=fixed;resizable=0;verticalAlign=bottom;labelPosition=center;verticalLabelPosition=top;flipH=1;" vertex="1" parent="1">
          <mxGeometry x="-697" y="470" width="8" height="8" as="geometry" />
        </mxCell>
        <mxCell id="OTHG-YNJ5ATRgMX6RS4N-49" value="" style="html=1;rounded=0;" vertex="1" parent="1">
          <mxGeometry x="-620" y="805" width="20" height="20" as="geometry" />
        </mxCell>
        <mxCell id="OTHG-YNJ5ATRgMX6RS4N-50" value="" style="endArrow=none;html=1;rounded=0;align=center;verticalAlign=top;endFill=0;labelBackgroundColor=none;endSize=2;" edge="1" parent="1" source="OTHG-YNJ5ATRgMX6RS4N-49" target="OTHG-YNJ5ATRgMX6RS4N-51">
          <mxGeometry relative="1" as="geometry" />
        </mxCell>
        <mxCell id="OTHG-YNJ5ATRgMX6RS4N-51" value="" style="ellipse;html=1;fontSize=11;align=center;fillColor=none;points=[];aspect=fixed;resizable=0;verticalAlign=bottom;labelPosition=center;verticalLabelPosition=top;flipH=1;" vertex="1" parent="1">
          <mxGeometry x="-703.5" y="811" width="8" height="8" as="geometry" />
        </mxCell>
        <mxCell id="OTHG-YNJ5ATRgMX6RS4N-52" value="" style="html=1;rounded=0;" vertex="1" parent="1">
          <mxGeometry x="-440" y="465" width="20" height="20" as="geometry" />
        </mxCell>
        <mxCell id="OTHG-YNJ5ATRgMX6RS4N-53" value="" style="shape=requiredInterface;html=1;fontSize=11;align=center;fillColor=none;points=[];aspect=fixed;resizable=0;verticalAlign=bottom;labelPosition=center;verticalLabelPosition=top;flipH=1;rotation=0;" vertex="1" parent="1">
          <mxGeometry x="-380" y="470" width="5" height="10" as="geometry" />
        </mxCell>
        <mxCell id="OTHG-YNJ5ATRgMX6RS4N-54" value="" style="endArrow=none;html=1;rounded=0;align=center;verticalAlign=top;endFill=0;labelBackgroundColor=none;endSize=2;" edge="1" source="OTHG-YNJ5ATRgMX6RS4N-52" target="OTHG-YNJ5ATRgMX6RS4N-53" parent="1">
          <mxGeometry relative="1" as="geometry">
            <mxPoint x="-372.00068569476025" y="481.07406137602277" as="targetPoint" />
          </mxGeometry>
        </mxCell>
        <mxCell id="OTHG-YNJ5ATRgMX6RS4N-55" value="" style="html=1;rounded=0;" vertex="1" parent="1">
          <mxGeometry x="-445" y="130" width="20" height="20" as="geometry" />
        </mxCell>
        <mxCell id="OTHG-YNJ5ATRgMX6RS4N-56" value="" style="shape=requiredInterface;html=1;fontSize=11;align=center;fillColor=none;points=[];aspect=fixed;resizable=0;verticalAlign=bottom;labelPosition=center;verticalLabelPosition=top;flipH=1;rotation=0;" vertex="1" parent="1">
          <mxGeometry x="-385" y="135" width="5" height="10" as="geometry" />
        </mxCell>
        <mxCell id="OTHG-YNJ5ATRgMX6RS4N-57" value="" style="endArrow=none;html=1;rounded=0;align=center;verticalAlign=top;endFill=0;labelBackgroundColor=none;endSize=2;" edge="1" source="OTHG-YNJ5ATRgMX6RS4N-55" target="OTHG-YNJ5ATRgMX6RS4N-56" parent="1">
          <mxGeometry relative="1" as="geometry">
            <mxPoint x="-377.00068569476025" y="140.07406137602277" as="targetPoint" />
          </mxGeometry>
        </mxCell>
        <mxCell id="OTHG-YNJ5ATRgMX6RS4N-58" value="" style="html=1;rounded=0;" vertex="1" parent="1">
          <mxGeometry x="-440" y="805" width="20" height="20" as="geometry" />
        </mxCell>
        <mxCell id="OTHG-YNJ5ATRgMX6RS4N-59" value="" style="shape=requiredInterface;html=1;fontSize=11;align=center;fillColor=none;points=[];aspect=fixed;resizable=0;verticalAlign=bottom;labelPosition=center;verticalLabelPosition=top;flipH=1;rotation=0;" vertex="1" parent="1">
          <mxGeometry x="-330" y="810" width="5" height="10" as="geometry" />
        </mxCell>
        <mxCell id="OTHG-YNJ5ATRgMX6RS4N-60" value="" style="endArrow=none;html=1;rounded=0;align=center;verticalAlign=top;endFill=0;labelBackgroundColor=none;endSize=2;" edge="1" source="OTHG-YNJ5ATRgMX6RS4N-58" target="OTHG-YNJ5ATRgMX6RS4N-59" parent="1">
          <mxGeometry relative="1" as="geometry">
            <mxPoint x="-372.00068569476025" y="821.0740613760228" as="targetPoint" />
          </mxGeometry>
        </mxCell>
        <mxCell id="OTHG-YNJ5ATRgMX6RS4N-65" value="«component»&lt;br&gt;&lt;b&gt;Staff&lt;/b&gt;" style="html=1;dropTarget=0;whiteSpace=wrap;" vertex="1" parent="1">
          <mxGeometry x="-180" y="89" width="180" height="90" as="geometry" />
        </mxCell>
        <mxCell id="OTHG-YNJ5ATRgMX6RS4N-66" value="" style="shape=module;jettyWidth=8;jettyHeight=4;" vertex="1" parent="OTHG-YNJ5ATRgMX6RS4N-65">
          <mxGeometry x="1" width="20" height="20" relative="1" as="geometry">
            <mxPoint x="-27" y="7" as="offset" />
          </mxGeometry>
        </mxCell>
        <mxCell id="OTHG-YNJ5ATRgMX6RS4N-67" value="«component»&lt;br&gt;&lt;b&gt;User&lt;/b&gt;" style="html=1;dropTarget=0;whiteSpace=wrap;" vertex="1" parent="1">
          <mxGeometry x="-179.99999999999977" y="430" width="180" height="90" as="geometry" />
        </mxCell>
        <mxCell id="OTHG-YNJ5ATRgMX6RS4N-68" value="" style="shape=module;jettyWidth=8;jettyHeight=4;" vertex="1" parent="OTHG-YNJ5ATRgMX6RS4N-67">
          <mxGeometry x="1" width="20" height="20" relative="1" as="geometry">
            <mxPoint x="-27" y="7" as="offset" />
          </mxGeometry>
        </mxCell>
        <mxCell id="OTHG-YNJ5ATRgMX6RS4N-69" value="" style="html=1;rounded=0;" vertex="1" parent="1">
          <mxGeometry x="-500" y="420" width="20" height="20" as="geometry" />
        </mxCell>
        <mxCell id="OTHG-YNJ5ATRgMX6RS4N-70" value="" style="shape=requiredInterface;html=1;fontSize=11;align=center;fillColor=none;points=[];aspect=fixed;resizable=0;verticalAlign=bottom;labelPosition=center;verticalLabelPosition=top;flipH=1;rotation=0;" vertex="1" parent="1">
          <mxGeometry x="-380" y="290" width="5" height="10" as="geometry" />
        </mxCell>
        <mxCell id="OTHG-YNJ5ATRgMX6RS4N-71" value="" style="endArrow=none;html=1;rounded=0;align=center;verticalAlign=top;endFill=0;labelBackgroundColor=none;endSize=2;" edge="1" source="OTHG-YNJ5ATRgMX6RS4N-69" target="OTHG-YNJ5ATRgMX6RS4N-70" parent="1">
          <mxGeometry relative="1" as="geometry">
            <mxPoint x="-462.00068569476025" y="290.07406137602277" as="targetPoint" />
          </mxGeometry>
        </mxCell>
        <mxCell id="OTHG-YNJ5ATRgMX6RS4N-72" value="" style="html=1;rounded=0;" vertex="1" parent="1">
          <mxGeometry x="-190" y="130" width="20" height="20" as="geometry" />
        </mxCell>
        <mxCell id="OTHG-YNJ5ATRgMX6RS4N-73" value="" style="endArrow=none;html=1;rounded=0;align=center;verticalAlign=top;endFill=0;labelBackgroundColor=none;endSize=2;" edge="1" source="OTHG-YNJ5ATRgMX6RS4N-72" target="OTHG-YNJ5ATRgMX6RS4N-74" parent="1">
          <mxGeometry relative="1" as="geometry" />
        </mxCell>
        <mxCell id="OTHG-YNJ5ATRgMX6RS4N-74" value="" style="ellipse;html=1;fontSize=11;align=center;fillColor=none;points=[];aspect=fixed;resizable=0;verticalAlign=bottom;labelPosition=center;verticalLabelPosition=top;flipH=1;" vertex="1" parent="1">
          <mxGeometry x="-380" y="136" width="8" height="8" as="geometry" />
        </mxCell>
        <mxCell id="OTHG-YNJ5ATRgMX6RS4N-77" value="" style="html=1;rounded=0;" vertex="1" parent="1">
          <mxGeometry x="-190" y="465" width="20" height="20" as="geometry" />
        </mxCell>
        <mxCell id="OTHG-YNJ5ATRgMX6RS4N-78" value="" style="endArrow=none;html=1;rounded=0;align=center;verticalAlign=top;endFill=0;labelBackgroundColor=none;endSize=2;" edge="1" source="OTHG-YNJ5ATRgMX6RS4N-77" target="OTHG-YNJ5ATRgMX6RS4N-79" parent="1">
          <mxGeometry relative="1" as="geometry" />
        </mxCell>
        <mxCell id="OTHG-YNJ5ATRgMX6RS4N-79" value="" style="ellipse;html=1;fontSize=11;align=center;fillColor=none;points=[];aspect=fixed;resizable=0;verticalAlign=bottom;labelPosition=center;verticalLabelPosition=top;flipH=1;" vertex="1" parent="1">
          <mxGeometry x="-372" y="471" width="8" height="8" as="geometry" />
        </mxCell>
        <mxCell id="OTHG-YNJ5ATRgMX6RS4N-81" value="" style="html=1;rounded=0;" vertex="1" parent="1">
          <mxGeometry x="-530" y="510" width="20" height="20" as="geometry" />
        </mxCell>
        <mxCell id="OTHG-YNJ5ATRgMX6RS4N-84" value="" style="html=1;rounded=0;" vertex="1" parent="1">
          <mxGeometry x="-530" y="760" width="20" height="20" as="geometry" />
        </mxCell>
        <mxCell id="OTHG-YNJ5ATRgMX6RS4N-86" value="" style="endArrow=none;html=1;rounded=0;align=center;verticalAlign=top;endFill=0;labelBackgroundColor=none;endSize=2;" edge="1" source="OTHG-YNJ5ATRgMX6RS4N-84" target="OTHG-YNJ5ATRgMX6RS4N-85" parent="1">
          <mxGeometry relative="1" as="geometry">
            <mxPoint x="-462.00068569476025" y="770.0740613760228" as="targetPoint" />
            <Array as="points">
              <mxPoint x="-520" y="625" />
            </Array>
          </mxGeometry>
        </mxCell>
        <mxCell id="OTHG-YNJ5ATRgMX6RS4N-87" value="" style="endArrow=none;html=1;rounded=0;align=center;verticalAlign=top;endFill=0;labelBackgroundColor=none;endSize=2;" edge="1" parent="1" source="OTHG-YNJ5ATRgMX6RS4N-81" target="OTHG-YNJ5ATRgMX6RS4N-85">
          <mxGeometry relative="1" as="geometry">
            <mxPoint x="-372" y="623" as="targetPoint" />
            <mxPoint x="-510" y="527" as="sourcePoint" />
            <Array as="points">
              <mxPoint x="-520" y="625" />
            </Array>
          </mxGeometry>
        </mxCell>
        <mxCell id="OTHG-YNJ5ATRgMX6RS4N-88" value="" style="group" vertex="1" connectable="0" parent="1">
          <mxGeometry x="-364" y="620" width="5" height="10" as="geometry" />
        </mxCell>
        <mxCell id="OTHG-YNJ5ATRgMX6RS4N-82" value="" style="shape=requiredInterface;html=1;fontSize=11;align=center;fillColor=none;points=[];aspect=fixed;resizable=0;verticalAlign=bottom;labelPosition=center;verticalLabelPosition=top;flipH=1;rotation=0;" vertex="1" parent="OTHG-YNJ5ATRgMX6RS4N-88">
          <mxGeometry width="5" height="10" as="geometry" />
        </mxCell>
        <mxCell id="OTHG-YNJ5ATRgMX6RS4N-83" value="" style="endArrow=none;html=1;rounded=0;align=center;verticalAlign=top;endFill=0;labelBackgroundColor=none;endSize=2;" edge="1" source="OTHG-YNJ5ATRgMX6RS4N-85" target="OTHG-YNJ5ATRgMX6RS4N-82" parent="OTHG-YNJ5ATRgMX6RS4N-88">
          <mxGeometry relative="1" as="geometry">
            <mxPoint x="-90.00068569476025" y="-99.92593862397723" as="targetPoint" />
          </mxGeometry>
        </mxCell>
        <mxCell id="OTHG-YNJ5ATRgMX6RS4N-85" value="" style="shape=requiredInterface;html=1;fontSize=11;align=center;fillColor=none;points=[];aspect=fixed;resizable=0;verticalAlign=bottom;labelPosition=center;verticalLabelPosition=top;flipH=1;rotation=0;" vertex="1" parent="OTHG-YNJ5ATRgMX6RS4N-88">
          <mxGeometry width="5" height="10" as="geometry" />
        </mxCell>
        <mxCell id="OTHG-YNJ5ATRgMX6RS4N-89" value="" style="html=1;rounded=0;" vertex="1" parent="1">
          <mxGeometry x="-190" y="615" width="20" height="20" as="geometry" />
        </mxCell>
        <mxCell id="OTHG-YNJ5ATRgMX6RS4N-90" value="" style="endArrow=none;html=1;rounded=0;align=center;verticalAlign=top;endFill=0;labelBackgroundColor=none;endSize=2;" edge="1" source="OTHG-YNJ5ATRgMX6RS4N-89" target="OTHG-YNJ5ATRgMX6RS4N-91" parent="1">
          <mxGeometry relative="1" as="geometry" />
        </mxCell>
        <mxCell id="OTHG-YNJ5ATRgMX6RS4N-91" value="" style="ellipse;html=1;fontSize=11;align=center;fillColor=none;points=[];aspect=fixed;resizable=0;verticalAlign=bottom;labelPosition=center;verticalLabelPosition=top;flipH=1;" vertex="1" parent="1">
          <mxGeometry x="-358" y="621" width="8" height="8" as="geometry" />
        </mxCell>
        <mxCell id="OTHG-YNJ5ATRgMX6RS4N-92" value="" style="html=1;rounded=0;" vertex="1" parent="1">
          <mxGeometry x="-190" y="805" width="20" height="20" as="geometry" />
        </mxCell>
        <mxCell id="OTHG-YNJ5ATRgMX6RS4N-93" value="" style="endArrow=none;html=1;rounded=0;align=center;verticalAlign=top;endFill=0;labelBackgroundColor=none;endSize=2;" edge="1" source="OTHG-YNJ5ATRgMX6RS4N-92" target="OTHG-YNJ5ATRgMX6RS4N-94" parent="1">
          <mxGeometry relative="1" as="geometry" />
        </mxCell>
        <mxCell id="OTHG-YNJ5ATRgMX6RS4N-94" value="" style="ellipse;html=1;fontSize=11;align=center;fillColor=none;points=[];aspect=fixed;resizable=0;verticalAlign=bottom;labelPosition=center;verticalLabelPosition=top;flipH=1;" vertex="1" parent="1">
          <mxGeometry x="-325" y="811" width="8" height="8" as="geometry" />
        </mxCell>
        <mxCell id="OTHG-YNJ5ATRgMX6RS4N-95" value="" style="html=1;rounded=0;" vertex="1" parent="1">
          <mxGeometry x="-190" y="285" width="20" height="20" as="geometry" />
        </mxCell>
        <mxCell id="OTHG-YNJ5ATRgMX6RS4N-96" value="" style="endArrow=none;html=1;rounded=0;align=center;verticalAlign=top;endFill=0;labelBackgroundColor=none;endSize=2;" edge="1" source="OTHG-YNJ5ATRgMX6RS4N-95" target="OTHG-YNJ5ATRgMX6RS4N-97" parent="1">
          <mxGeometry relative="1" as="geometry" />
        </mxCell>
        <mxCell id="OTHG-YNJ5ATRgMX6RS4N-97" value="" style="ellipse;html=1;fontSize=11;align=center;fillColor=none;points=[];aspect=fixed;resizable=0;verticalAlign=bottom;labelPosition=center;verticalLabelPosition=top;flipH=1;" vertex="1" parent="1">
          <mxGeometry x="-375" y="291" width="8" height="8" as="geometry" />
        </mxCell>
        <mxCell id="OTHG-YNJ5ATRgMX6RS4N-98" value="" style="html=1;rounded=0;" vertex="1" parent="1">
          <mxGeometry x="-530" y="850" width="20" height="20" as="geometry" />
        </mxCell>
        <mxCell id="OTHG-YNJ5ATRgMX6RS4N-99" value="" style="shape=requiredInterface;html=1;fontSize=11;align=center;fillColor=none;points=[];aspect=fixed;resizable=0;verticalAlign=bottom;labelPosition=center;verticalLabelPosition=top;flipH=1;rotation=0;" vertex="1" parent="1">
          <mxGeometry x="-336" y="995" width="5" height="10" as="geometry" />
        </mxCell>
        <mxCell id="OTHG-YNJ5ATRgMX6RS4N-100" value="" style="endArrow=none;html=1;rounded=0;align=center;verticalAlign=top;endFill=0;labelBackgroundColor=none;endSize=2;" edge="1" source="OTHG-YNJ5ATRgMX6RS4N-98" target="OTHG-YNJ5ATRgMX6RS4N-99" parent="1">
          <mxGeometry relative="1" as="geometry">
            <mxPoint x="-82.00068569476025" y="730.0740613760228" as="targetPoint" />
          </mxGeometry>
        </mxCell>
        <mxCell id="OTHG-YNJ5ATRgMX6RS4N-102" value="" style="html=1;rounded=0;" vertex="1" parent="1">
          <mxGeometry x="-190" y="990" width="20" height="20" as="geometry" />
        </mxCell>
        <mxCell id="OTHG-YNJ5ATRgMX6RS4N-103" value="" style="endArrow=none;html=1;rounded=0;align=center;verticalAlign=top;endFill=0;labelBackgroundColor=none;endSize=2;" edge="1" source="OTHG-YNJ5ATRgMX6RS4N-102" target="OTHG-YNJ5ATRgMX6RS4N-104" parent="1">
          <mxGeometry relative="1" as="geometry" />
        </mxCell>
        <mxCell id="OTHG-YNJ5ATRgMX6RS4N-104" value="" style="ellipse;html=1;fontSize=11;align=center;fillColor=none;points=[];aspect=fixed;resizable=0;verticalAlign=bottom;labelPosition=center;verticalLabelPosition=top;flipH=1;" vertex="1" parent="1">
          <mxGeometry x="-330" y="996" width="8" height="8" as="geometry" />
        </mxCell>
        <mxCell id="OTHG-YNJ5ATRgMX6RS4N-109" value="" style="html=1;rounded=0;" vertex="1" parent="1">
          <mxGeometry x="-1260" y="121" width="20" height="20" as="geometry" />
        </mxCell>
        <mxCell id="OTHG-YNJ5ATRgMX6RS4N-110" value="" style="shape=requiredInterface;html=1;fontSize=11;align=center;fillColor=none;points=[];aspect=fixed;resizable=0;verticalAlign=bottom;labelPosition=center;verticalLabelPosition=top;flipH=1;rotation=0;" vertex="1" parent="1">
          <mxGeometry x="-1175" y="126" width="5" height="10" as="geometry" />
        </mxCell>
        <mxCell id="OTHG-YNJ5ATRgMX6RS4N-111" value="" style="endArrow=none;html=1;rounded=0;align=center;verticalAlign=top;endFill=0;labelBackgroundColor=none;endSize=2;" edge="1" source="OTHG-YNJ5ATRgMX6RS4N-109" target="OTHG-YNJ5ATRgMX6RS4N-110" parent="1">
          <mxGeometry relative="1" as="geometry">
            <mxPoint x="-1192.0006856947603" y="131.07406137602277" as="targetPoint" />
          </mxGeometry>
        </mxCell>
        <mxCell id="OTHG-YNJ5ATRgMX6RS4N-112" value="" style="html=1;rounded=0;" vertex="1" parent="1">
          <mxGeometry x="-1250" y="455" width="20" height="20" as="geometry" />
        </mxCell>
        <mxCell id="OTHG-YNJ5ATRgMX6RS4N-113" value="" style="shape=requiredInterface;html=1;fontSize=11;align=center;fillColor=none;points=[];aspect=fixed;resizable=0;verticalAlign=bottom;labelPosition=center;verticalLabelPosition=top;flipH=1;rotation=0;" vertex="1" parent="1">
          <mxGeometry x="-1160" y="460" width="5" height="10" as="geometry" />
        </mxCell>
        <mxCell id="OTHG-YNJ5ATRgMX6RS4N-114" value="" style="endArrow=none;html=1;rounded=0;align=center;verticalAlign=top;endFill=0;labelBackgroundColor=none;endSize=2;" edge="1" source="OTHG-YNJ5ATRgMX6RS4N-112" target="OTHG-YNJ5ATRgMX6RS4N-113" parent="1">
          <mxGeometry relative="1" as="geometry">
            <mxPoint x="-1168.5" y="464.03378378378375" as="targetPoint" />
          </mxGeometry>
        </mxCell>
        <mxCell id="OTHG-YNJ5ATRgMX6RS4N-115" value="" style="html=1;rounded=0;" vertex="1" parent="1">
          <mxGeometry x="-1255" y="795" width="20" height="20" as="geometry" />
        </mxCell>
        <mxCell id="OTHG-YNJ5ATRgMX6RS4N-116" value="" style="shape=requiredInterface;html=1;fontSize=11;align=center;fillColor=none;points=[];aspect=fixed;resizable=0;verticalAlign=bottom;labelPosition=center;verticalLabelPosition=top;flipH=1;rotation=0;" vertex="1" parent="1">
          <mxGeometry x="-1175" y="800" width="5" height="10" as="geometry" />
        </mxCell>
        <mxCell id="OTHG-YNJ5ATRgMX6RS4N-117" value="" style="endArrow=none;html=1;rounded=0;align=center;verticalAlign=top;endFill=0;labelBackgroundColor=none;endSize=2;" edge="1" source="OTHG-YNJ5ATRgMX6RS4N-115" target="OTHG-YNJ5ATRgMX6RS4N-116" parent="1">
          <mxGeometry relative="1" as="geometry">
            <mxPoint x="-1187.0006856947603" y="805.0740613760228" as="targetPoint" />
          </mxGeometry>
        </mxCell>
        <mxCell id="OTHG-YNJ5ATRgMX6RS4N-121" value="«component»&lt;br&gt;&lt;b&gt;Service&lt;/b&gt;" style="html=1;dropTarget=0;whiteSpace=wrap;" vertex="1" parent="1">
          <mxGeometry x="-649.9999999999998" y="209" width="180" height="90" as="geometry" />
        </mxCell>
        <mxCell id="OTHG-YNJ5ATRgMX6RS4N-122" value="" style="shape=module;jettyWidth=8;jettyHeight=4;" vertex="1" parent="OTHG-YNJ5ATRgMX6RS4N-121">
          <mxGeometry x="1" width="20" height="20" relative="1" as="geometry">
            <mxPoint x="-27" y="7" as="offset" />
          </mxGeometry>
        </mxCell>
        <mxCell id="OTHG-YNJ5ATRgMX6RS4N-123" value="" style="html=1;rounded=0;" vertex="1" parent="1">
          <mxGeometry x="-576" y="291" width="20" height="20" as="geometry" />
        </mxCell>
        <mxCell id="OTHG-YNJ5ATRgMX6RS4N-124" value="" style="endArrow=none;html=1;rounded=0;align=center;verticalAlign=top;endFill=0;labelBackgroundColor=none;endSize=2;" edge="1" source="OTHG-YNJ5ATRgMX6RS4N-123" target="OTHG-YNJ5ATRgMX6RS4N-125" parent="1">
          <mxGeometry relative="1" as="geometry" />
        </mxCell>
        <mxCell id="OTHG-YNJ5ATRgMX6RS4N-125" value="" style="ellipse;html=1;fontSize=11;align=center;fillColor=none;points=[];aspect=fixed;resizable=0;verticalAlign=bottom;labelPosition=center;verticalLabelPosition=top;flipH=1;" vertex="1" parent="1">
          <mxGeometry x="-570" y="340" width="8" height="8" as="geometry" />
        </mxCell>
        <mxCell id="OTHG-YNJ5ATRgMX6RS4N-126" value="" style="html=1;rounded=0;" vertex="1" parent="1">
          <mxGeometry x="-575.5" y="420" width="20" height="20" as="geometry" />
        </mxCell>
        <mxCell id="OTHG-YNJ5ATRgMX6RS4N-127" value="" style="shape=requiredInterface;html=1;fontSize=11;align=center;fillColor=none;points=[];aspect=fixed;resizable=0;verticalAlign=bottom;labelPosition=center;verticalLabelPosition=top;flipH=1;rotation=-90;" vertex="1" parent="1">
          <mxGeometry x="-568" y="348" width="5" height="10" as="geometry" />
        </mxCell>
        <mxCell id="OTHG-YNJ5ATRgMX6RS4N-128" value="" style="endArrow=none;html=1;rounded=0;align=center;verticalAlign=top;endFill=0;labelBackgroundColor=none;endSize=2;" edge="1" source="OTHG-YNJ5ATRgMX6RS4N-126" target="OTHG-YNJ5ATRgMX6RS4N-127" parent="1">
          <mxGeometry relative="1" as="geometry">
            <mxPoint x="-507.00068569476025" y="430.07406137602277" as="targetPoint" />
          </mxGeometry>
        </mxCell>
        <mxCell id="OTHG-YNJ5ATRgMX6RS4N-131" value="" style="endArrow=none;html=1;rounded=0;align=center;verticalAlign=top;endFill=0;labelBackgroundColor=none;endSize=2;" edge="1" parent="1" target="OTHG-YNJ5ATRgMX6RS4N-130">
          <mxGeometry relative="1" as="geometry">
            <mxPoint x="-498.00068569476025" y="-48.92593862397723" as="targetPoint" />
            <mxPoint x="-517.666666666667" y="81" as="sourcePoint" />
          </mxGeometry>
        </mxCell>
        <mxCell id="OTHG-YNJ5ATRgMX6RS4N-134" value="" style="html=1;rounded=0;" vertex="1" parent="1">
          <mxGeometry x="-535" y="82" width="20" height="20" as="geometry" />
        </mxCell>
        <mxCell id="OTHG-YNJ5ATRgMX6RS4N-135" value="" style="shape=requiredInterface;html=1;fontSize=11;align=center;fillColor=none;points=[];aspect=fixed;resizable=0;verticalAlign=bottom;labelPosition=center;verticalLabelPosition=top;flipH=1;rotation=0;" vertex="1" parent="1">
          <mxGeometry x="-380" y="-45" width="5" height="10" as="geometry" />
        </mxCell>
        <mxCell id="OTHG-YNJ5ATRgMX6RS4N-136" value="" style="endArrow=none;html=1;rounded=0;align=center;verticalAlign=top;endFill=0;labelBackgroundColor=none;endSize=2;" edge="1" parent="1" source="OTHG-YNJ5ATRgMX6RS4N-134" target="OTHG-YNJ5ATRgMX6RS4N-135">
          <mxGeometry relative="1" as="geometry">
            <mxPoint x="-462.00068569476025" y="-44.92593862397723" as="targetPoint" />
          </mxGeometry>
        </mxCell>
        <mxCell id="OTHG-YNJ5ATRgMX6RS4N-137" value="" style="html=1;rounded=0;" vertex="1" parent="1">
          <mxGeometry x="-190" y="-50" width="20" height="20" as="geometry" />
        </mxCell>
        <mxCell id="OTHG-YNJ5ATRgMX6RS4N-138" value="" style="endArrow=none;html=1;rounded=0;align=center;verticalAlign=top;endFill=0;labelBackgroundColor=none;endSize=2;" edge="1" parent="1" source="OTHG-YNJ5ATRgMX6RS4N-137" target="OTHG-YNJ5ATRgMX6RS4N-139">
          <mxGeometry relative="1" as="geometry" />
        </mxCell>
        <mxCell id="OTHG-YNJ5ATRgMX6RS4N-139" value="" style="ellipse;html=1;fontSize=11;align=center;fillColor=none;points=[];aspect=fixed;resizable=0;verticalAlign=bottom;labelPosition=center;verticalLabelPosition=top;flipH=1;" vertex="1" parent="1">
          <mxGeometry x="-375" y="-44" width="8" height="8" as="geometry" />
        </mxCell>
      </root>
    </mxGraphModel>
  </diagram>
</mxfile>
